<svg
  width="1440"
  height="670"
  viewBox="0 0 1440 870"
  fill="none"
  xmlns="http://www.w3.org/2000/svg"
>
  <path
    d="M-64.2362 -192.707C-92.8246 -299.4 -29.508 -409.068 77.1852 -437.656L1811.02 -902.236C1917.72 -930.825 2027.38 -867.508 2055.97 -760.815L2268.2 31.2443C2296.79 137.937 2233.47 247.605 2126.78 276.193L392.944 740.773C286.251 769.362 176.584 706.045 147.995 599.352L-64.2362 -192.707Z"
    fill="url(#paint0_linear)"
  />
  <path
    d="M-1.65268 -68.5041C-46.5796 -169.412 -1.19835 -287.634 99.7091 -332.56L1739.52 -1062.65C1840.43 -1107.58 1958.65 -1062.2 2003.58 -961.291L2337.1 -212.184C2382.03 -111.276 2336.65 6.94577 2235.74 51.8727L595.928 781.965C495.02 826.892 376.798 781.511 331.871 680.603L-1.65268 -68.5041Z"
    fill="url(#paint1_linear)"
  />
  <path
    opacity="0.111111"
    d="M9.35352 -78.2653C-51.8003 -169.769 -27.1965 -293.523 64.3076 -354.677L1556.7 -1352.07C1648.2 -1413.22 1771.96 -1388.62 1833.11 -1297.11L2288.74 -615.353C2349.9 -523.849 2325.29 -400.096 2233.79 -338.942L741.398 658.45C649.894 719.604 526.14 695 464.987 603.496L9.35352 -78.2653Z"
    stroke="url(#paint2_linear)"
    stroke-width="1.44444"
  />
  <path
    opacity="0.222222"
    d="M6.62836 -76.4609C-52.8527 -168.915 -26.1227 -292.083 66.3315 -351.564L1575.9 -1322.76C1668.36 -1382.24 1791.53 -1355.51 1851.01 -1263.06L2294.67 -573.446C2354.15 -480.992 2327.42 -357.824 2234.97 -298.343L725.397 672.852C632.943 732.333 509.775 705.603 450.294 613.149L6.62836 -76.4609Z"
    stroke="url(#paint3_linear)"
    stroke-width="1.88889"
  />
  <path
    opacity="0.333333"
    d="M3.87417 -74.7009C-53.9197 -168.075 -25.0764 -290.62 68.2974 -348.414L1594.59 -1293.11C1687.96 -1350.91 1810.51 -1322.07 1868.3 -1228.69L2299.86 -531.444C2357.66 -438.07 2328.82 -315.525 2235.44 -257.731L709.15 686.97C615.776 744.764 493.23 715.92 435.437 622.546L3.87417 -74.7009Z"
    stroke="url(#paint4_linear)"
    stroke-width="2.33333"
  />
  <path
    opacity="0.444444"
    d="M1.09172 -72.986C-55.001 -167.249 -24.058 -289.136 70.2048 -345.229L1612.75 -1263.15C1707.01 -1319.24 1828.9 -1288.3 1884.99 -1194.04L2304.32 -489.362C2360.41 -395.099 2329.47 -273.212 2235.21 -217.119L692.663 700.8C598.4 756.893 476.512 725.95 420.42 631.687L1.09172 -72.986Z"
    stroke="url(#paint5_linear)"
    stroke-width="2.77778"
  />
  <path
    opacity="0.555556"
    d="M-1.7183 -71.3166C-56.0965 -166.437 -23.068 -287.63 72.0529 -342.009L1630.38 -1232.87C1725.51 -1287.25 1846.7 -1254.22 1901.08 -1159.1L2308.04 -447.212C2362.42 -352.091 2329.39 -230.898 2234.27 -176.52L675.94 714.339C580.819 768.717 459.626 735.688 405.248 640.567L-1.7183 -71.3166Z"
    stroke="url(#paint6_linear)"
    stroke-width="3.22222"
  />
  <path
    opacity="0.666667"
    d="M-4.55512 -69.6931C-57.2059 -165.641 -22.1067 -286.104 73.8411 -338.755L1647.48 -1202.28C1743.43 -1254.93 1863.89 -1219.83 1916.54 -1123.88L2311.02 -405.006C2363.67 -309.059 2328.58 -188.596 2232.63 -135.945L658.986 727.581C563.038 780.232 442.575 745.133 389.925 649.185L-4.55512 -69.6931Z"
    stroke="url(#paint7_linear)"
    stroke-width="3.66667"
  />
  <path
    opacity="0.777778"
    d="M-7.41801 -68.116C-58.3291 -164.859 -21.1745 -284.557 75.5689 -335.468L1664.04 -1171.4C1760.79 -1222.31 1880.48 -1185.16 1931.39 -1088.41L2313.27 -362.759C2364.18 -266.015 2327.02 -146.318 2230.28 -95.4065L641.808 740.524C545.064 791.435 425.367 754.281 374.456 657.537L-7.41801 -68.116Z"
    stroke="url(#paint8_linear)"
    stroke-width="4.11111"
  />
  <path
    opacity="0.888889"
    d="M-10.3062 -66.5855C-59.4659 -164.093 -20.272 -282.991 77.2356 -332.15L1680.06 -1140.23C1777.56 -1189.39 1896.46 -1150.2 1945.62 -1052.69L2314.77 -320.482C2363.93 -222.974 2324.74 -104.077 2227.23 -54.9171L624.41 753.164C526.902 802.323 408.005 763.129 358.845 665.622L-10.3062 -66.5855Z"
    stroke="url(#paint9_linear)"
    stroke-width="4.55556"
  />
  <path
    d="M-13.219 -65.1023C-60.6161 -163.343 -19.3995 -281.405 78.8407 -328.802L1695.52 -1108.79C1793.76 -1156.18 1911.82 -1114.97 1959.22 -1016.73L2315.53 -278.188C2362.93 -179.948 2321.72 -61.8859 2223.48 -14.4888L606.797 765.496C508.557 812.893 390.494 771.676 343.097 673.436L-13.219 -65.1023Z"
    stroke="url(#paint10_linear)"
    stroke-width="5"
  />
  <defs>
    <linearGradient
      id="paint0_linear"
      x1="-140.294"
      y1="-379.383"
      x2="2287.6"
      y2="199.08"
      gradientUnits="userSpaceOnUse"
    >
      <stop stop-color="#00CFFD" />
      <stop offset="1" stop-color="#9D46FF" />
      <stop offset="1" stop-color="#A255FF" stop-opacity="0" />
      <stop offset="1" stop-color="#A255FF" stop-opacity="0" />
    </linearGradient>
    <linearGradient
      id="paint1_linear"
      x1="-105.977"
      y1="-240.983"
      x2="2382.52"
      y2="-49.4495"
      gradientUnits="userSpaceOnUse"
    >
      <stop stop-color="#3913B8" />
      <stop offset="1" stop-color="#9D46FF" />
      <stop offset="1" stop-color="#A255FF" stop-opacity="0" />
      <stop offset="1" stop-color="#A255FF" stop-opacity="0" />
    </linearGradient>
    <linearGradient
      id="paint2_linear"
      x1="-123.288"
      y1="-230.172"
      x2="2361.68"
      y2="-463.069"
      gradientUnits="userSpaceOnUse"
    >
      <stop stop-color="#00CFFD" />
      <stop offset="1" stop-color="#9D46FF" />
      <stop offset="1" stop-color="#A255FF" stop-opacity="0" />
      <stop offset="1" stop-color="#A255FF" stop-opacity="0" />
    </linearGradient>
    <linearGradient
      id="paint3_linear"
      x1="-123.529"
      y1="-230.539"
      x2="2365.13"
      y2="-420.032"
      gradientUnits="userSpaceOnUse"
    >
      <stop stop-color="#00CFFD" />
      <stop offset="1" stop-color="#9D46FF" />
      <stop offset="1" stop-color="#A255FF" stop-opacity="0" />
      <stop offset="1" stop-color="#A255FF" stop-opacity="0" />
    </linearGradient>
    <linearGradient
      id="paint4_linear"
      x1="-123.763"
      y1="-230.91"
      x2="2367.82"
      y2="-376.942"
      gradientUnits="userSpaceOnUse"
    >
      <stop stop-color="#00CFFD" />
      <stop offset="1" stop-color="#9D46FF" />
      <stop offset="1" stop-color="#A255FF" stop-opacity="0" />
      <stop offset="1" stop-color="#A255FF" stop-opacity="0" />
    </linearGradient>
    <linearGradient
      id="paint5_linear"
      x1="-123.991"
      y1="-231.286"
      x2="2369.76"
      y2="-333.811"
      gradientUnits="userSpaceOnUse"
    >
      <stop stop-color="#00CFFD" />
      <stop offset="1" stop-color="#9D46FF" />
      <stop offset="1" stop-color="#A255FF" stop-opacity="0" />
      <stop offset="1" stop-color="#A255FF" stop-opacity="0" />
    </linearGradient>
    <linearGradient
      id="paint6_linear"
      x1="-124.212"
      y1="-231.665"
      x2="2370.95"
      y2="-290.652"
      gradientUnits="userSpaceOnUse"
    >
      <stop stop-color="#00CFFD" />
      <stop offset="1" stop-color="#9D46FF" />
      <stop offset="1" stop-color="#A255FF" stop-opacity="0" />
      <stop offset="1" stop-color="#A255FF" stop-opacity="0" />
    </linearGradient>
    <linearGradient
      id="paint7_linear"
      x1="-124.426"
      y1="-232.048"
      x2="2371.38"
      y2="-247.48"
      gradientUnits="userSpaceOnUse"
    >
      <stop stop-color="#00CFFD" />
      <stop offset="1" stop-color="#9D46FF" />
      <stop offset="1" stop-color="#A255FF" stop-opacity="0" />
      <stop offset="1" stop-color="#A255FF" stop-opacity="0" />
    </linearGradient>
    <linearGradient
      id="paint8_linear"
      x1="-124.634"
      y1="-232.434"
      x2="2371.07"
      y2="-204.306"
      gradientUnits="userSpaceOnUse"
    >
      <stop stop-color="#00CFFD" />
      <stop offset="1" stop-color="#9D46FF" />
      <stop offset="1" stop-color="#A255FF" stop-opacity="0" />
      <stop offset="1" stop-color="#A255FF" stop-opacity="0" />
    </linearGradient>
    <linearGradient
      id="paint9_linear"
      x1="-124.835"
      y1="-232.825"
      x2="2369.99"
      y2="-161.145"
      gradientUnits="userSpaceOnUse"
    >
      <stop stop-color="#00CFFD" />
      <stop offset="1" stop-color="#9D46FF" />
      <stop offset="1" stop-color="#A255FF" stop-opacity="0" />
      <stop offset="1" stop-color="#A255FF" stop-opacity="0" />
    </linearGradient>
    <linearGradient
      id="paint10_linear"
      x1="-125.029"
      y1="-233.218"
      x2="2368.17"
      y2="-118.008"
      gradientUnits="userSpaceOnUse"
    >
      <stop stop-color="#00CFFD" />
      <stop offset="1" stop-color="#9D46FF" />
      <stop offset="1" stop-color="#A255FF" stop-opacity="0" />
      <stop offset="1" stop-color="#A255FF" stop-opacity="0" />
    </linearGradient>
  </defs>
</svg>
